PathFileType	4	(X/Y/Z)	/Users/itak/Documents/Research/Walk-IL/dataset/trc/00278_00010.trc
DataRate	CameraRate	NumFrames	NumMarkers	Units	OrigDataRate	OrigDataStartFrame	OrigNumFrames
100.000000	100.000000	4	54	mm	100.000000	138	552
Frame#	Time	RPSI			LPSI			L3			STRN			T10			C7			CLAV			RBAK			LBAK			LSHO			LUPA			LAEL			LAOL			LWTS			LWPS			LFRA			LIFD			LHPS			LHTS			RSHO			RUPA			RAEL			RAOL			RWTS			RWPS			RFRA			RIFD			RHTS			RHPS			RBHD			LFHD			RFHD			LBHD			LHIP			RASI			LASI			LKNE			LTHI			LANK			LTIP			LTOE			LMT1			LMT5			LHEE			RKNE			RTHI			RANK			RTIP			RTOE			RMT1			RMT5			RHEE			RHIP			*53			
		X1	Y1	Z1	X2	Y2	Z2	X3	Y3	Z3	X4	Y4	Z4	X5	Y5	Z5	X6	Y6	Z6	X7	Y7	Z7	X8	Y8	Z8	X9	Y9	Z9	X10	Y10	Z10	X11	Y11	Z11	X12	Y12	Z12	X13	Y13	Z13	X14	Y14	Z14	X15	Y15	Z15	X16	Y16	Z16	X17	Y17	Z17	X18	Y18	Z18	X19	Y19	Z19	X20	Y20	Z20	X21	Y21	Z21	X22	Y22	Z22	X23	Y23	Z23	X24	Y24	Z24	X25	Y25	Z25	X26	Y26	Z26	X27	Y27	Z27	X28	Y28	Z28	X29	Y29	Z29	X30	Y30	Z30	X31	Y31	Z31	X32	Y32	Z32	X33	Y33	Z33	X34	Y34	Z34	X35	Y35	Z35	X36	Y36	Z36	X37	Y37	Z37	X38	Y38	Z38	X39	Y39	Z39	X40	Y40	Z40	X41	Y41	Z41	X42	Y42	Z42	X43	Y43	Z43	X44	Y44	Z44	X45	Y45	Z45	X46	Y46	Z46	X47	Y47	Z47	X48	Y48	Z48	X49	Y49	Z49	X50	Y50	Z50	X51	Y51	Z51	X52	Y52	Z52	X53	Y53	Z53	X54	Y54	Z54	

139	1.38	1516.972778320312	973.8828125	529.8999633789062	1350.7607421875	964.8151245117188	475.080078125	1433.213989257812	1044.331665039062	484.6471252441406	1497.644775390625	1222.041137695312	246.896484375	1423.580322265625	1160.412109375	502.6319885253906	1403.192138671875	1402.308837890625	449.5530700683594	1464.596801757812	1321.22607421875	304.1104736328125	1472.212036132812	1274.8466796875	525.1792602539062	1301.715209960938	1356.180419921875	436.0945739746094	1280.915161132812	1355.381713867188	333.7813415527344	1208.02099609375	1236.17041015625	339.0348510742188	1209.6611328125	1034.45361328125	327.9782104492188	1235.769409179688	1021.745544433594	409.9381103515625	1295.954956054688	822.526123046875	265.6384582519531	1225.75	805.353759765625	267.4620361328125	1213.42333984375	932.262939453125	306.9093933105469	1315.195434570312	637.6148681640625	250.5653228759766	1237.575317382812	717.1171264648438	257.6792907714844	1295.955078125	727.2139892578125	227.9547271728516	1576.187255859375	1397.645629882812	431.2135314941406	1641.642822265625	1346.293090820312	461.24609375	1693.045532226562	1087.791381835938	517.84912109375	1598.52783203125	1076.344116210938	511.0899658203125	1687.145874023438	854.4691772460938	449.546142578125	1743.528076171875	859.1126098632812	513.4437866210938	1715.142700195312	1020.419860839844	511.5543212890625	1720.477416992188	668.2140502929688	475.5433349609375	1718.89306640625	728.6881713867188	453.0615539550781	1750.465698242188	743.8484497070312	515.3221435546875	1477.0966796875	1564.38623046875	430.3907775878906	1346.088256835938	1589.30908203125	264.838623046875	1437.634765625	1604.531494140625	262.7757568359375	1334.065795898438	1531.279663085938	431.2211303710938	1284.086791992188	913.6323852539062	377.5599060058594	1615.6005859375	935.8487548828125	330.1947326660156	1373.070068359375	924.39453125	262.3833618164062	1423.98876953125	452.5945739746094	331.3034057617188	1370.951171875	588.9602661132812	323.6592712402344	1479.292724609375	32.54508972167969	466.9812622070312	1446.742065429688	227.9712982177734	395.7743835449219	1622.604125976562	21.89531135559082	301.3798828125	1625.545532226562	11.58615779876709	385.6275024414062	1520.08984375	28.83284568786621	349.8098449707031	1515.935668945312	25.21850776672363	531.7166748046875	1701.780883789062	500.8966369628906	268.6443481445312	1687.485595703125	745.2835083007812	356.0085144042969	1705.32080078125	146.3478240966797	552.4835815429688	1701.610107421875	383.4194946289062	305.0653076171875	1665.742309570312	45.50500869750977	385.6549987792969	1620.886596679688	70.88963317871094	431.9099731445312	1728.962158203125	77.87467193603516	476.2478637695312	1653.593627929688	175.8912506103516	590.9182739257812	1643.852294921875	929.06689453125	461.3487854003906	nan	nan	nan	
140	1.39	1522.416625976562	974.6063842773438	520.825439453125	1355.100463867188	964.5311279296875	469.3561096191406	1436.666259765625	1044.351196289062	477.2706604003906	1497.737915039062	1222.640380859375	237.8357849121094	1426.07373046875	1161.12451171875	494.6964416503906	1406.470092773438	1403.160766601562	441.6172790527344	1465.828491210938	1321.887939453125	295.5922241210938	1475.3115234375	1275.275024414062	516.5283813476562	1304.56005859375	1357.638061523438	429.06689453125	1282.765258789062	1357.261840820312	327.0001831054688	1209.253540039062	1238.502197265625	332.4815063476562	1209.896850585938	1036.603271484375	319.4500427246094	1237.398559570312	1023.309204101562	401.3788757324219	1297.619995117188	826.4724731445312	252.1953277587891	1227.49755859375	809.2936401367188	253.7127380371094	1214.16845703125	935.0902709960938	296.5092468261719	1316.520263671875	641.78466796875	234.0940551757812	1239.089965820312	721.2221069335938	242.2325439453125	1297.632690429688	731.7783813476562	212.8635559082031	1579.141845703125	1397.452758789062	421.6376037597656	1644.523071289062	1346.034912109375	451.3330993652344	1694.27294921875	1087.664794921875	509.68212890625	1599.655517578125	1076.790893554688	502.7597045898438	1686.487670898438	853.6847534179688	444.0923767089844	1743.237182617188	858.456787109375	507.4463195800781	1716.01025390625	1020.143859863281	503.9397277832031	1718.553588867188	667.3846435546875	471.0269470214844	1717.770751953125	727.829345703125	447.7922058105469	1749.029296875	743.072998046875	510.1880187988281	1480.962646484375	1564.933349609375	420.9526672363281	1348.093383789062	1589.790771484375	256.9068298339844	1439.648315429688	1604.747436523438	253.7184600830078	1337.8896484375	1532.223022460938	423.5778503417969	1286.213989257812	913.0665893554688	373.3245544433594	1616.605834960938	937.2333984375	318.9022827148438	1372.734008789062	924.1222534179688	256.2042846679688	1424.485595703125	452.3401794433594	329.4205627441406	1372.390502929688	588.7098999023438	321.2643432617188	1479.453857421875	32.7287712097168	466.9713439941406	1447.177734375	228.08935546875	394.9926147460938	1622.6376953125	21.81518173217773	301.3365478515625	1625.594848632812	11.45343399047852	385.7185974121094	1520.161010742188	28.87678337097168	349.8082580566406	1516.077758789062	25.52579307556152	531.8162841796875	1701.971557617188	503.4672241210938	252.8323974609375	1689.896118164062	747.564453125	341.7346496582031	1718.638305664062	136.4400634765625	520.6428833007812	1704.540649414062	384.6656799316406	285.289794921875	1679.378540039062	44.64855575561523	348.3494873046875	1634.631225585938	65.50572204589844	397.0642700195312	1743.26025390625	74.08920288085938	439.5892944335938	1666.942626953125	162.0258483886719	561.8992309570312	1646.41455078125	930.53271484375	449.2167358398438	nan	nan	nan	
141	1.4	1527.921508789062	975.3287963867188	511.6062316894531	1359.56591796875	964.2589721679688	463.6383056640625	1440.125122070312	1044.310546875	469.875244140625	1497.624755859375	1223.063720703125	228.7665252685547	1428.553344726562	1161.699462890625	486.7599487304688	1409.647827148438	1403.8681640625	433.6981506347656	1466.895751953125	1322.348266601562	287.0502624511719	1478.348388671875	1275.541259765625	507.8522338867188	1307.316284179688	1358.955078125	422.0966796875	1284.4560546875	1359.007934570312	320.286865234375	1210.437255859375	1240.588745117188	326.0696105957031	1210.3134765625	1038.62109375	310.9559631347656	1239.41259765625	1024.664672851562	392.7461853027344	1298.802490234375	830.37255859375	238.3061676025391	1228.827270507812	812.9794311523438	240.4390563964844	1214.896606445312	937.7736206054688	286.1961975097656	1317.387573242188	645.832275390625	217.5422058105469	1240.24365234375	725.161376953125	227.3970947265625	1298.46240234375	736.109130859375	197.67724609375	1581.948120117188	1397.099731445312	411.9720153808594	1647.289916992188	1345.683837890625	441.3387756347656	1695.61279296875	1087.505615234375	501.4683837890625	1600.88427734375	1077.13330078125	494.5384521484375	1686.03759765625	852.8525390625	438.318603515625	1743.16796875	857.7689819335938	501.1238708496094	1717.01708984375	1019.825866699219	496.2139892578125	1716.783813476562	666.5001831054688	465.9842529296875	1716.713745117188	727.042236328125	442.0053405761719	1747.746948242188	742.242431640625	504.5275268554688	1484.801391601562	1565.288208007812	411.5248718261719	1350.107666015625	1590.20703125	248.97265625	1441.676635742188	1604.809692382812	244.6651306152344	1341.654174804688	1533.098876953125	415.91552734375	1288.506713867188	912.418212890625	369.1959228515625	1617.446044921875	938.4436645507812	307.6337585449219	1372.3349609375	923.707763671875	250.0896911621094	1425.060546875	452.0850524902344	327.3540344238281	1373.826904296875	588.4279174804688	318.7722473144531	1479.643188476562	32.94224166870117	466.9677124023438	1447.651977539062	228.1937408447266	394.0922241210938	1622.658569335938	21.72450828552246	301.3033142089844	1625.589111328125	11.35328197479248	385.5789489746094	1520.235717773438	28.92827415466309	349.79931640625	1516.200073242188	25.84832382202148	531.897705078125	1701.853759765625	505.5498962402344	237.9088897705078	1692.140869140625	749.5175170898438	327.698486328125	1730.756225585938	126.355094909668	487.7245483398438	1707.032592773438	385.5841064453125	266.0238037109375	1690.891357421875	44.13424682617188	310.5469970703125	1646.599853515625	60.53804779052734	361.4800415039062	1755.73193359375	70.23781585693359	402.2112426757812	1679.421997070312	147.9325408935547	531.6622924804688	1648.6357421875	931.8685302734375	437.6059265136719	nan	nan	nan	
142	1.41	1533.442504882812	976.0130004882812	502.2220458984375	1364.133178710938	963.997802734375	457.8806457519531	1443.54931640625	1044.268798828125	462.4730224609375	1497.314331054688	1223.28466796875	219.7078399658203	1431.036010742188	1162.12646484375	478.8091430664062	1412.7236328125	1404.412109375	425.7729187011719	1467.8125	1322.596069335938	278.4859924316406	1481.316650390625	1275.642822265625	499.143310546875	1309.978759765625	1360.112182617188	415.1657409667969	1286.007202148438	1360.583984375	313.6168518066406	1211.606079101562	1242.386108398438	319.713623046875	1210.992797851562	1040.487548828125	302.4368286132812	1241.706787109375	1025.769287109375	384.0134582519531	1299.528564453125	834.19775390625	224.0823974609375	1229.765258789062	816.3513793945312	227.6083984375	1215.651611328125	940.2669677734375	275.9380798339844	1317.908447265625	649.7708740234375	200.8578796386719	1241.099731445312	728.8755493164062	213.0938873291016	1298.556030273438	740.2206420898438	182.4083709716797	1584.606079101562	1396.58642578125	402.2158508300781	1649.945190429688	1345.22119140625	431.2488098144531	1697.065551757812	1087.291625976562	493.1616516113281	1602.230590820312	1077.356323242188	486.4054260253906	1685.788330078125	851.9612426757812	432.1993408203125	1743.309692382812	857.0348510742188	494.4519348144531	1718.15576171875	1019.443481445312	488.3352355957031	1715.214965820312	665.5596923828125	460.4321899414062	1715.76904296875	726.2777709960938	435.7379455566406	1746.665405273438	741.355712890625	498.3576049804688	1488.598876953125	1565.444946289062	402.102783203125	1352.136108398438	1590.539306640625	241.0222778320312	1443.723266601562	1604.704711914062	235.6136627197266	1345.355102539062	1533.896240234375	408.2211608886719	1290.963134765625	911.6978149414062	365.1340637207031	1618.11767578125	939.4189453125	296.4671630859375	1371.891967773438	923.1598510742188	244.0108947753906	1425.690795898438	451.7935791015625	325.0806884765625	1375.221923828125	588.0986938476562	316.1432800292969	1479.847412109375	33.18305587768555	466.9682922363281	1448.1630859375	228.2676696777344	393.0653076171875	1622.6640625	21.63296127319336	301.2762451171875	1625.548095703125	11.31017303466797	385.2403259277344	1520.308715820312	28.98456954956055	349.7804870605469	1516.299926757812	26.18718910217285	531.9574584960938	1701.51806640625	507.1172790527344	223.8416442871094	1694.216674804688	751.1239624023438	313.9101257324219	1741.559204101562	116.2621612548828	453.755615234375	1709.108032226562	386.1653137207031	247.2114105224609	1700.099975585938	44.0324592590332	272.4093017578125	1656.587890625	56.11671447753906	325.3208618164062	1766.219482421875	66.38412475585938	364.1656494140625	1690.925659179688	133.8544616699219	500.2290649414062	1650.509521484375	933.0271606445312	426.9825134277344	nan	nan	nan	
